# xmcd
#
# Track frame offsets:
#	183
#	11800
#	25500
#	38185
#	48738
#	62070
#	76028
#	87848
#	103245
#	117543
#	129433
#	141105
#	154818
#	163775
#	176890
#
# Disc length: 2504 seconds
#
# Revision: 1
# Processed by: cddbd v1.5.2PL0 Copyright (c) Steve Scherf et al.
# Submitted via: audiograbber 1.83.01
#
DISCID=c809c60f
DTITLE=Various Artist - Best Of Country - With Love From Nashville - Vol. 4
DYEAR=1900
DGENRE=Country
TTITLE0=The Kendalls - Heaven's Just A Sin Away
TTITLE1=Brenda Lee - You Don't Have To Say You Love Me
TTITLE2=Charley Pride - Help Me Make It Through The Night
TTITLE3=Patsy Cline - I Love You Honey
TTITLE4=Mark Mozingo - All Over Now
TTITLE5=Merle Haggard - I Threw Away The Rose
TTITLE6=Patsy Cline  - A Poor Mans Roses
TTITLE7=Don Gibson - Sweet Dreams
TTITLE8=Nancy Peppers - I'm A Fool
TTITLE9=Conway Twitty - Lying Here With Linda On My Mind 
TTITLE10=Donna Fargo - Happiest Girl In The Whole U.S.A
TTITLE11=The Kendalls - Heartaches By The Number
TTITLE12=Merle Haggard and Wylie and The Wild West Show - Ugly Girl Blues
TTITLE13=Charley Pride - Kaw-Liga
TTITLE14=Nancy Peppers and Mark Mozingo - Have A Merry Christmas Anyway
EXTD=
EXTT0=
EXTT1=
EXTT2=
EXTT3=
EXTT4=
EXTT5=
EXTT6=
EXTT7=
EXTT8=
EXTT9=
EXTT10=
EXTT11=
EXTT12=
EXTT13=
EXTT14=
PLAYORDER=
